<svg class="diagram-root" style="background: #f5f6f6" xmlns="http://www.w3.org/2000/svg" xmlns:xlink="http://www.w3.org/1999/xlink"><style>.diagram-root { font-family: "Helvetica Neue", sans-serif; font-size: 12px; } .t { overflow: visible; } .t-bg { y: 40; fill: #fff;   } .th { fill: #005aa0;   } .tht { fill: #fff; font-size: 14px;  } .tf { fill: #323c46; overflow: visible; } .tf.pk { fill: #005aa0; font-weight: bold; } .tf.fk { font-weight: bold; } .ty { fill: #adb1b5; font-weight: normal; text-anchor: end; } .r { fill: transparent; stroke: #c3c3c3; stroke-width: 1; } .l { stroke: 1; } .i { fill: #c2c7ce; stroke: #c2c7ce; } .i.ix { fill: #afb3b6; stroke: #000; } .fa { fill: transparent; overflow: visible; } .fa .bg.hover { fill: #f7f7f7; } .c { cy: 12; r: 4; stroke: #d2d2dc; fill: #d2d2dc; } .hr { fill: transparent; stroke: #323c46; stroke-opacity: 0.035; stroke-width: 13; } .dc { stroke: #fa5a3c; fill: #fa5a3c; } .x { stroke: white; stroke-width: 1; } .hl .th { fill: #1b9bff; } .hl .tht {  } .fhl .bg { fill: #e7f4ff; } .fhls .bg {  } .r.hl { stroke: #1b9bff; } .dim { opacity: 0.25; }</style><g class="drawing-wrapper" transform="translate(-86, -21) scale(1,1)"><g class="rs"><path d="M 108 440 m -1, 0 a 1,1 0 1,0 2,0 a 1,1 0 1,0 -2,0 M 108 440 m -0.5, 0 a 0.5,0.5 0 1,0 1,0 a 0.5,0.5 0 1,0 -1,0  M108 440 L108 440 96 440 M 108 446 m -1, 0 a 1,1 0 1,0 2,0 a 1,1 0 1,0 -2,0 M 108 446 m -0.5, 0 a 0.5,0.5 0 1,0 1,0 a 0.5,0.5 0 1,0 -1,0  M108 446 L108 446 101 440 108 434 M 108 434 m -1, 0 a 1,1 0 1,0 2,0 a 1,1 0 1,0 -2,0 M 108 434 m -0.5, 0 a 0.5,0.5 0 1,0 1,0 a 0.5,0.5 0 1,0 -1,0  M96 440 C 46 440, 46 134, 96 134 M 108 134 m -1, 0 a 1,1 0 1,0 2,0 a 1,1 0 1,0 -2,0 M 108 134 m -0.5, 0 a 0.5,0.5 0 1,0 1,0 a 0.5,0.5 0 1,0 -1,0  M108 134 L108 134 96 134 M102 140 L102 140 102 128" id="h3621716062" class="r"></path><path d="M 250.71 465 m -1, 0 a 1,1 0 1,0 2,0 a 1,1 0 1,0 -2,0 M 250.71 465 m -0.5, 0 a 0.5,0.5 0 1,0 1,0 a 0.5,0.5 0 1,0 -1,0  M250.71 465 L250.71 465 262.71000000000004 465 M 250.71 471 m -1, 0 a 1,1 0 1,0 2,0 a 1,1 0 1,0 -2,0 M 250.71 471 m -0.5, 0 a 0.5,0.5 0 1,0 1,0 a 0.5,0.5 0 1,0 -1,0  M250.71 471 L250.71 471 257.71000000000004 465 250.71 459 M 250.71 459 m -1, 0 a 1,1 0 1,0 2,0 a 1,1 0 1,0 -2,0 M 250.71 459 m -0.5, 0 a 0.5,0.5 0 1,0 1,0 a 0.5,0.5 0 1,0 -1,0  M262.71000000000004 465 Q 282.54 465, 302.36 358.5 T 342 252 M 354 252 m -1, 0 a 1,1 0 1,0 2,0 a 1,1 0 1,0 -2,0 M 354 252 m -0.5, 0 a 0.5,0.5 0 1,0 1,0 a 0.5,0.5 0 1,0 -1,0  M354 252 L354 252 342 252 M348 258 L348 258 348 246" id="h4133863674" class="r"></path><path d="M 562 133 m -1, 0 a 1,1 0 1,0 2,0 a 1,1 0 1,0 -2,0 M 562 133 m -0.5, 0 a 0.5,0.5 0 1,0 1,0 a 0.5,0.5 0 1,0 -1,0  M562 133 L562 133 550 133 M 562 139 m -1, 0 a 1,1 0 1,0 2,0 a 1,1 0 1,0 -2,0 M 562 139 m -0.5, 0 a 0.5,0.5 0 1,0 1,0 a 0.5,0.5 0 1,0 -1,0  M562 139 L562 139 555 133 562 127 M 562 127 m -1, 0 a 1,1 0 1,0 2,0 a 1,1 0 1,0 -2,0 M 562 127 m -0.5, 0 a 0.5,0.5 0 1,0 1,0 a 0.5,0.5 0 1,0 -1,0  M550 133 Q 479.74 133, 409.48 133.5 T 268.96 134 M 256.96 134 m -1, 0 a 1,1 0 1,0 2,0 a 1,1 0 1,0 -2,0 M 256.96 134 m -0.5, 0 a 0.5,0.5 0 1,0 1,0 a 0.5,0.5 0 1,0 -1,0  M256.96 134 L256.96 134 268.96 134 M262.96 140 L262.96 140 262.96 128" id="h3782546594" class="r"></path><path d="M 715.36 158 m -1, 0 a 1,1 0 1,0 2,0 a 1,1 0 1,0 -2,0 M 715.36 158 m -0.5, 0 a 0.5,0.5 0 1,0 1,0 a 0.5,0.5 0 1,0 -1,0  M715.36 158 L715.36 158 727.36 158 M 715.36 164 m -1, 0 a 1,1 0 1,0 2,0 a 1,1 0 1,0 -2,0 M 715.36 164 m -0.5, 0 a 0.5,0.5 0 1,0 1,0 a 0.5,0.5 0 1,0 -1,0  M715.36 164 L715.36 164 722.36 158 715.36 152 M 715.36 152 m -1, 0 a 1,1 0 1,0 2,0 a 1,1 0 1,0 -2,0 M 715.36 152 m -0.5, 0 a 0.5,0.5 0 1,0 1,0 a 0.5,0.5 0 1,0 -1,0  M727.36 158 C 777.36 158, 898.95 252, 524.71 252 M 512.71 252 m -1, 0 a 1,1 0 1,0 2,0 a 1,1 0 1,0 -2,0 M 512.71 252 m -0.5, 0 a 0.5,0.5 0 1,0 1,0 a 0.5,0.5 0 1,0 -1,0  M512.71 252 L512.71 252 524.71 252 M518.71 258 L518.71 258 518.71 246" id="h1283896394" class="r"></path></g><g class="hrs"></g><g class="ts"><svg width="153.36" height="275" x="562" y="51" id="h160511972" class="t"><rect height="40" width="153.36" class="th"></rect><text x="13" y="25" class="tht">Review</text><rect height="235" width="153.36" class="t-bg" y="40"></rect><text x="13" y="61" class="tf pk">Review_ID<tspan x="140.36" class="ty">string</tspan></text><path d="M7,14A2,2 0 0,1 5,12A2,2 0 0,1 7,10A2,2 0 0,1 9,12A2,2 0 0,1 7,14M12.65,10C11.83,7.67 9.61,6 7, 6A6, 6 0 0, 0 1, 12A6, 6 0 0, 0 7, 18C9.61, 18 11.83, 16.33 12.65, 14H17V18H21V14H23V10H12.65Z" class="i pk" transform="translate(91.01625000000001, 48) scale(0.65)"></path><text x="13" y="86" class="tf fk">User_ID<tspan x="140.36" class="ty">string</tspan></text><text x="13" y="111" class="tf fk">Business_ID<tspan x="140.36" class="ty">string</tspan></text><text x="13" y="136" class="tf">Stars<tspan x="140.36" class="ty">float</tspan></text><text x="13" y="161" class="tf">Useful<tspan x="140.36" class="ty">int</tspan></text><text x="13" y="186" class="tf">Funny<tspan x="140.36" class="ty">int</tspan></text><text x="13" y="211" class="tf">Cool<tspan x="140.36" class="ty">int</tspan></text><text x="13" y="236" class="tf">Text<tspan x="140.36" class="ty">string</tspan></text><text x="13" y="261" class="tf">Date<tspan x="140.36" class="ty">string</tspan></text></svg><svg width="158.71" height="350" x="354" y="195" id="h1217302614" class="t"><rect height="40" width="158.71" class="th"></rect><text x="13" y="25" class="tht">Business</text><rect height="310" width="158.71" class="t-bg" y="40"></rect><text x="13" y="61" class="tf pk">Business_ID<tspan x="145.71" class="ty">sting</tspan></text><path d="M7,14A2,2 0 0,1 5,12A2,2 0 0,1 7,10A2,2 0 0,1 9,12A2,2 0 0,1 7,14M12.65,10C11.83,7.67 9.61,6 7, 6A6, 6 0 0, 0 1, 12A6, 6 0 0, 0 7, 18C9.61, 18 11.83, 16.33 12.65, 14H17V18H21V14H23V10H12.65Z" class="i pk" transform="translate(100.36234375000001, 48) scale(0.65)"></path><text x="13" y="86" class="tf">Name<tspan x="145.71" class="ty">string</tspan></text><text x="13" y="111" class="tf">Address<tspan x="145.71" class="ty">string</tspan></text><text x="13" y="136" class="tf">City<tspan x="145.71" class="ty">string</tspan></text><text x="13" y="161" class="tf">State<tspan x="145.71" class="ty">string</tspan></text><text x="13" y="186" class="tf">Latitude<tspan x="145.71" class="ty">float</tspan></text><text x="13" y="211" class="tf">Longitude<tspan x="145.71" class="ty">float</tspan></text><text x="13" y="236" class="tf">Stars<tspan x="145.71" class="ty">float</tspan></text><text x="13" y="261" class="tf">Review_count<tspan x="145.71" class="ty">int</tspan></text><text x="13" y="286" class="tf">Is_open<tspan x="145.71" class="ty">int</tspan></text><text x="13" y="311" class="tf">Category<tspan x="145.71" class="ty">string</tspan></text><text x="13" y="336" class="tf">Attribute<tspan x="145.71" class="ty">string</tspan></text></svg><svg width="148.96" height="225" x="108" y="77" id="h1537667952" class="t"><rect height="40" width="148.96" class="th"></rect><text x="13" y="25" class="tht">User</text><rect height="185" width="148.96" class="t-bg" y="40"></rect><text x="13" y="61" class="tf pk">User_ID<tspan x="135.96" class="ty">string</tspan></text><path d="M7,14A2,2 0 0,1 5,12A2,2 0 0,1 7,10A2,2 0 0,1 9,12A2,2 0 0,1 7,14M12.65,10C11.83,7.67 9.61,6 7, 6A6, 6 0 0, 0 1, 12A6, 6 0 0, 0 7, 18C9.61, 18 11.83, 16.33 12.65, 14H17V18H21V14H23V10H12.65Z" class="i pk" transform="translate(86.61625000000001, 48) scale(0.65)"></path><text x="13" y="86" class="tf">Name<tspan x="135.96" class="ty">string</tspan></text><text x="13" y="111" class="tf">Review_count<tspan x="135.96" class="ty">int</tspan></text><text x="13" y="136" class="tf">Yelping_since<tspan x="135.96" class="ty">string</tspan></text><text x="13" y="161" class="tf">Elite<tspan x="135.96" class="ty">string</tspan></text><text x="13" y="186" class="tf">Friends_count<tspan x="135.96" class="ty">int</tspan></text><text x="13" y="211" class="tf">Average_stars<tspan x="135.96" class="ty">float</tspan></text></svg><svg width="142.71" height="175" x="108" y="358" id="h2050476767" class="t"><rect height="40" width="142.71" class="th"></rect><text x="13" y="25" class="tht">Tip</text><rect height="135" width="142.71" class="t-bg" y="40"></rect><text x="13" y="61" class="tf pk">Tip_ID<tspan x="129.71" class="ty">int</tspan></text><path d="M7,14A2,2 0 0,1 5,12A2,2 0 0,1 7,10A2,2 0 0,1 9,12A2,2 0 0,1 7,14M12.65,10C11.83,7.67 9.61,6 7, 6A6, 6 0 0, 0 1, 12A6, 6 0 0, 0 7, 18C9.61, 18 11.83, 16.33 12.65, 14H17V18H21V14H23V10H12.65Z" class="i pk" transform="translate(97.03617187500001, 48) scale(0.65)"></path><text x="13" y="86" class="tf fk">User_ID<tspan x="129.71" class="ty">string</tspan></text><text x="13" y="111" class="tf fk">Business_ID<tspan x="129.71" class="ty">string</tspan></text><text x="13" y="136" class="tf">Text<tspan x="129.71" class="ty">string</tspan></text><text x="13" y="161" class="tf">Date<tspan x="129.71" class="ty">string</tspan></text></svg></g></g><text class="qdbd-link" x="10" y="20">www.quickdatabasediagrams.com</text></svg>